{
  "accessors": [
    {
      "bufferView": 2,
      "componentType": 5126,
      "count": 1422,
      "max": [
        1.455601453781128,
        3.1417646408081055,
        1.3675036430358887
      ],
      "min": [
        -1.4164304733276367,
        -3.8801939487457275,
        -1.337443470954895
      ],
      "type": "VEC3"
    },
    {
      "bufferView": 2,
      "byteOffset": 17064,
      "componentType": 5126,
      "count": 1422,
      "max": [
        1.0,
        1.0,
        1.0
      ],
      "min": [
        -1.0,
        -1.0,
        -1.0
      ],
      "type": "VEC3"
    },
    {
      "bufferView": 1,
      "componentType": 5126,
      "count": 1422,
      "max": [
        1.0,
        1.0
      ],
      "min": [
        -8.940696716308594e-08,
        0.0
      ],
      "type": "VEC2"
    },
    {
      "bufferView": 0,
      "componentType": 5125,
      "count": 2166,
      "type": "SCALAR"
    },
    {
      "bufferView": 2,
      "byteOffset": 34128,
      "componentType": 5126,
      "count": 1684,
      "max": [
        1.4711532592773438,
        1.0412306785583496,
        0.36204904317855835
      ],
      "min": [
        -1.4839839935302734,
        -5.622851848602295,
        -2.4747087955474854
      ],
      "type": "VEC3"
    },
    {
      "bufferView": 2,
      "byteOffset": 54336,
      "componentType": 5126,
      "count": 1684,
      "max": [
        0.9999931454658508,
        0.9999998807907104,
        1.0
      ],
      "min": [
        -0.9999932050704956,
        -0.9972801208496094,
        -0.9999954700469971
      ],
      "type": "VEC3"
    },
    {
      "bufferView": 1,
      "byteOffset": 11376,
      "componentType": 5126,
      "count": 1684,
      "max": [
        0.9140840768814087,
        1.0
      ],
      "min": [
        0.125,
        0.0
      ],
      "type": "VEC2"
    },
    {
      "bufferView": 0,
      "byteOffset": 8664,
      "componentType": 5125,
      "count": 2562,
      "type": "SCALAR"
    },
    {
      "bufferView": 2,
      "byteOffset": 74544,
      "componentType": 5126,
      "count": 24,
      "max": [
        1.3537887334823608,
        -4.012008190155029,
        0.2089298814535141
      ],
      "min": [
        -1.3537887334823608,
        -5.531408309936523,
        -1.1638857126235962
      ],
      "type": "VEC3"
    },
    {
      "bufferView": 2,
      "byteOffset": 74832,
      "componentType": 5126,
      "count": 24,
      "max": [
        0.9999996423721313,
        5.481745029101148e-05,
        0.11668683588504791
      ],
      "min": [
        -0.9999995827674866,
        -0.9931687712669373,
        -0.0009214015444740653
      ],
      "type": "VEC3"
    },
    {
      "bufferView": 1,
      "byteOffset": 24848,
      "componentType": 5126,
      "count": 24,
      "max": [
        0.6064888834953308,
        0.9841744303703308
      ],
      "min": [
        0.46017780900001526,
        0.030205750837922096
      ],
      "type": "VEC2"
    },
    {
      "bufferView": 0,
      "byteOffset": 18912,
      "componentType": 5125,
      "count": 54,
      "type": "SCALAR"
    },
    {
      "bufferView": 2,
      "byteOffset": 75120,
      "componentType": 5126,
      "count": 4198,
      "max": [
        1.5380096435546875,
        3.261498212814331,
        1.682249665260315
      ],
      "min": [
        -1.5477261543273926,
        -5.662631511688232,
        -2.1098148822784424
      ],
      "type": "VEC3"
    },
    {
      "bufferView": 2,
      "byteOffset": 125496,
      "componentType": 5126,
      "count": 4198,
      "max": [
        1.0,
        1.0,
        1.0
      ],
      "min": [
        -1.0,
        -1.0,
        -1.0
      ],
      "type": "VEC3"
    },
    {
      "bufferView": 1,
      "byteOffset": 25040,
      "componentType": 5126,
      "count": 4198,
      "max": [
        1.0,
        1.0
      ],
      "min": [
        -8.940696716308594e-08,
        0.0
      ],
      "type": "VEC2"
    },
    {
      "bufferView": 0,
      "byteOffset": 19128,
      "componentType": 5125,
      "count": 6408,
      "type": "SCALAR"
    },
    {
      "bufferView": 2,
      "byteOffset": 175872,
      "componentType": 5126,
      "count": 288,
      "max": [
        1.1082978248596191,
        -5.3048481941223145,
        0.41244688630104065
      ],
      "min": [
        -1.1082942485809326,
        -5.623703479766846,
        -1.5674270391464233
      ],
      "type": "VEC3"
    },
    {
      "bufferView": 2,
      "byteOffset": 179328,
      "componentType": 5126,
      "count": 288,
      "max": [
        0.6675151586532593,
        0.9935345649719238,
        0.9999491572380066
      ],
      "min": [
        -0.6675145030021667,
        -0.999767541885376,
        -0.622202455997467
      ],
      "type": "VEC3"
    },
    {
      "bufferView": 1,
      "byteOffset": 58624,
      "componentType": 5126,
      "count": 288,
      "max": [
        0.9999999403953552,
        1.0
      ],
      "min": [
        0.0,
        0.0
      ],
      "type": "VEC2"
    },
    {
      "bufferView": 0,
      "byteOffset": 44760,
      "componentType": 5125,
      "count": 408,
      "type": "SCALAR"
    },
    {
      "bufferView": 2,
      "byteOffset": 182784,
      "componentType": 5126,
      "count": 768,
      "max": [
        1.3911654949188232,
        2.3708536624908447,
        1.2700767517089844
      ],
      "min": [
        -1.384803056716919,
        -5.540133953094482,
        -1.6942839622497559
      ],
      "type": "VEC3"
    },
    {
      "bufferView": 2,
      "byteOffset": 192000,
      "componentType": 5126,
      "count": 768,
      "max": [
        1.0,
        1.0,
        1.0
      ],
      "min": [
        -1.0,
        -1.0,
        -1.0
      ],
      "type": "VEC3"
    },
    {
      "bufferView": 1,
      "byteOffset": 60928,
      "componentType": 5126,
      "count": 768,
      "max": [
        0.875,
        1.0
      ],
      "min": [
        0.125,
        0.02721283584833145
      ],
      "type": "VEC2"
    },
    {
      "bufferView": 0,
      "byteOffset": 46392,
      "componentType": 5125,
      "count": 1056,
      "type": "SCALAR"
    },
    {
      "bufferView": 2,
      "byteOffset": 201216,
      "componentType": 5126,
      "count": 7676,
      "max": [
        1.9286748170852661,
        2.7596137523651123,
        1.2759275436401367
      ],
      "min": [
        -1.928674340248108,
        -5.661199569702148,
        -2.2763149738311768
      ],
      "type": "VEC3"
    },
    {
      "bufferView": 2,
      "byteOffset": 293328,
      "componentType": 5126,
      "count": 7676,
      "max": [
        1.0,
        1.0,
        1.0
      ],
      "min": [
        -1.0,
        -1.0,
        -1.0
      ],
      "type": "VEC3"
    },
    {
      "bufferView": 1,
      "byteOffset": 67072,
      "componentType": 5126,
      "count": 7676,
      "max": [
        1.0,
        1.0
      ],
      "min": [
        -8.940696716308594e-08,
        0.0
      ],
      "type": "VEC2"
    },
    {
      "bufferView": 0,
      "byteOffset": 50616,
      "componentType": 5125,
      "count": 11640,
      "type": "SCALAR"
    },
    {
      "bufferView": 2,
      "byteOffset": 385440,
      "componentType": 5126,
      "count": 2364,
      "max": [
        1.4753108024597168,
        1.2038112878799438,
        -1.4592562913894653
      ],
      "min": [
        -1.4881415367126465,
        -4.596271514892578,
        -2.63728928565979
      ],
      "type": "VEC3"
    },
    {
      "bufferView": 2,
      "byteOffset": 413808,
      "componentType": 5126,
      "count": 2364,
      "max": [
        1.0,
        0.9998955130577087,
        1.0
      ],
      "min": [
        -1.0,
        -0.9998955130577087,
        -1.0
      ],
      "type": "VEC3"
    },
    {
      "bufferView": 1,
      "byteOffset": 128480,
      "componentType": 5126,
      "count": 2364,
      "max": [
        1.0,
        1.0
      ],
      "min": [
        7.450580596923828e-08,
        0.0
      ],
      "type": "VEC2"
    },
    {
      "bufferView": 0,
      "byteOffset": 97176,
      "componentType": 5125,
      "count": 3720,
      "type": "SCALAR"
    },
    {
      "bufferView": 2,
      "byteOffset": 442176,
      "componentType": 5126,
      "count": 192,
      "max": [
        1.031907320022583,
        1.5601515769958496,
        -1.624763011932373
      ],
      "min": [
        -1.0551942586898804,
        1.5448254346847534,
        -1.7509814500808716
      ],
      "type": "VEC3"
    },
    {
      "bufferView": 2,
      "byteOffset": 444480,
      "componentType": 5126,
      "count": 192,
      "max": [
        1.0,
        1.0,
        1.0
      ],
      "min": [
        -1.0,
        -1.0,
        -1.0
      ],
      "type": "VEC3"
    },
    {
      "bufferView": 1,
      "byteOffset": 147392,
      "componentType": 5126,
      "count": 192,
      "max": [
        0.875,
        1.0
      ],
      "min": [
        0.125,
        0.01785365492105484
      ],
      "type": "VEC2"
    },
    {
      "bufferView": 0,
      "byteOffset": 112056,
      "componentType": 5125,
      "count": 264,
      "type": "SCALAR"
    },
    {
      "bufferView": 2,
      "byteOffset": 446784,
      "componentType": 5126,
      "count": 18145,
      "max": [
        1.9411612749099731,
        3.2763099670410156,
        1.6987223625183105
      ],
      "min": [
        -1.9411613941192627,
        -5.677367687225342,
        -2.6558756828308105
      ],
      "type": "VEC3"
    },
    {
      "bufferView": 2,
      "byteOffset": 664524,
      "componentType": 5126,
      "count": 18145,
      "max": [
        1.0,
        1.0,
        1.0
      ],
      "min": [
        -1.0,
        -1.0,
        -1.0
      ],
      "type": "VEC3"
    },
    {
      "bufferView": 1,
      "byteOffset": 148928,
      "componentType": 5126,
      "count": 18145,
      "max": [
        1.0,
        1.0
      ],
      "min": [
        -8.940696716308594e-08,
        0.0
      ],
      "type": "VEC2"
    },
    {
      "bufferView": 0,
      "byteOffset": 113112,
      "componentType": 5125,
      "count": 28098,
      "type": "SCALAR"
    }
  ],
  "asset": {
    "extras": {
      "author": "iedalton (https://sketchfab.com/iedalton)",
      "license": "CC-BY-4.0 (http://creativecommons.org/licenses/by/4.0/)",
      "source": "https://sketchfab.com/3d-models/garbage-truck-abc7705b46bd4e9fa7a245ea15f9d89a",
      "title": "Garbage Truck"
    },
    "generator": "Sketchfab-12.67.0",
    "version": "2.0"
  },
  "bufferViews": [
    {
      "buffer": 0,
      "byteLength": 225504,
      "name": "floatBufferViews",
      "target": 34963
    },
    {
      "buffer": 0,
      "byteLength": 294088,
      "byteOffset": 225504,
      "byteStride": 8,
      "name": "floatBufferViews",
      "target": 34962
    },
    {
      "buffer": 0,
      "byteLength": 882264,
      "byteOffset": 519592,
      "byteStride": 12,
      "name": "floatBufferViews",
      "target": 34962
    }
  ],
  "buffers": [
    {
      "byteLength": 1401856,
      "uri": "scene.bin"
    }
  ],
  "extensionsUsed": [
    "KHR_materials_clearcoat"
  ],
  "materials": [
    {
      "doubleSided": true,
      "extensions": {
        "KHR_materials_clearcoat": {
          "clearcoatFactor": 1.0,
          "clearcoatRoughnessFactor": 0.263910061
        }
      },
      "name": "MainBody",
      "pbrMetallicRoughness": {
        "baseColorFactor": [
          0.0661164,
          0.12371,
          0.0205722,
          1.0
        ],
        "metallicFactor": 0.7761051829,
        "roughnessFactor": 0.976740633
      }
    },
    {
      "doubleSided": true,
      "name": "material",
      "pbrMetallicRoughness": {
        "baseColorFactor": [
          0.4099098734,
          0.4099098734,
          0.4099098734,
          1.0
        ],
        "metallicFactor": 0.0,
        "roughnessFactor": 0.8998288504
      }
    },
    {
      "doubleSided": true,
      "name": "Material.001",
      "pbrMetallicRoughness": {
        "baseColorFactor": [
          0.4178432857,
          0.6082823782,
          0.7409556523,
          1.0
        ],
        "metallicFactor": 0.3065929878,
        "roughnessFactor": 0.8040408206
      }
    },
    {
      "doubleSided": true,
      "name": "Black",
      "pbrMetallicRoughness": {
        "baseColorFactor": [
          0.0,
          0.0,
          0.0,
          1.0
        ],
        "metallicFactor": 0.0
      }
    },
    {
      "doubleSided": true,
      "emissiveFactor": [
        1.0,
        1.0,
        0.175039673
      ],
      "name": "Ligght",
      "pbrMetallicRoughness": {
        "baseColorFactor": [
          0.8556051858,
          0.8285230772,
          0.3624321988,
          1.0
        ],
        "metallicFactor": 0.0,
        "roughnessFactor": 0.8040408206
      }
    },
    {
      "doubleSided": true,
      "emissiveFactor": [
        1.0,
        0.218076349,
        0.0
      ],
      "name": "Blinker",
      "pbrMetallicRoughness": {
        "baseColorFactor": [
          0.9700679791,
          0.796356336,
          0.6397128034,
          1.0
        ],
        "metallicFactor": 0.0,
        "roughnessFactor": 0.8040408206
      }
    },
    {
      "doubleSided": true,
      "name": "Silver",
      "pbrMetallicRoughness": {
        "baseColorFactor": [
          0.146779,
          0.1693,
          0.184469,
          1.0
        ],
        "metallicFactor": 0.0,
        "roughnessFactor": 0.962969096
      }
    },
    {
      "doubleSided": true,
      "name": "tire",
      "pbrMetallicRoughness": {
        "baseColorFactor": [
          0.0,
          0.0,
          0.0,
          1.0
        ],
        "metallicFactor": 0.0,
        "roughnessFactor": 0.8040408206
      }
    },
    {
      "doubleSided": true,
      "emissiveFactor": [
        1.0,
        0.0,
        0.0
      ],
      "name": "tail",
      "pbrMetallicRoughness": {
        "baseColorFactor": [
          1.0,
          0.0,
          0.0,
          1.0
        ],
        "metallicFactor": 0.0,
        "roughnessFactor": 0.8040408206
      }
    },
    {
      "name": "Outline",
      "pbrMetallicRoughness": {
        "baseColorFactor": [
          0.0,
          0.0,
          0.0,
          1.0
        ],
        "metallicFactor": 0.0,
        "roughnessFactor": 0.7809109769979335
      }
    }
  ],
  "meshes": [
    {
      "name": "Cube.023_MainBody_0",
      "primitives": [
        {
          "attributes": {
            "NORMAL": 1,
            "POSITION": 0,
            "TEXCOORD_0": 2
          },
          "indices": 3,
          "material": 0,
          "mode": 4
        }
      ]
    },
    {
      "name": "Cube.023_Cab_0",
      "primitives": [
        {
          "attributes": {
            "NORMAL": 5,
            "POSITION": 4,
            "TEXCOORD_0": 6
          },
          "indices": 7,
          "material": 1,
          "mode": 4
        }
      ]
    },
    {
      "name": "Cube.023_Material.001_0",
      "primitives": [
        {
          "attributes": {
            "NORMAL": 9,
            "POSITION": 8,
            "TEXCOORD_0": 10
          },
          "indices": 11,
          "material": 2,
          "mode": 4
        }
      ]
    },
    {
      "name": "Cube.023_Black_0",
      "primitives": [
        {
          "attributes": {
            "NORMAL": 13,
            "POSITION": 12,
            "TEXCOORD_0": 14
          },
          "indices": 15,
          "material": 3,
          "mode": 4
        }
      ]
    },
    {
      "name": "Cube.023_Ligght_0",
      "primitives": [
        {
          "attributes": {
            "NORMAL": 17,
            "POSITION": 16,
            "TEXCOORD_0": 18
          },
          "indices": 19,
          "material": 4,
          "mode": 4
        }
      ]
    },
    {
      "name": "Cube.023_Blinker_0",
      "primitives": [
        {
          "attributes": {
            "NORMAL": 21,
            "POSITION": 20,
            "TEXCOORD_0": 22
          },
          "indices": 23,
          "material": 5,
          "mode": 4
        }
      ]
    },
    {
      "name": "Cube.023_Silver_0",
      "primitives": [
        {
          "attributes": {
            "NORMAL": 25,
            "POSITION": 24,
            "TEXCOORD_0": 26
          },
          "indices": 27,
          "material": 6,
          "mode": 4
        }
      ]
    },
    {
      "name": "Cube.023_tire_0",
      "primitives": [
        {
          "attributes": {
            "NORMAL": 29,
            "POSITION": 28,
            "TEXCOORD_0": 30
          },
          "indices": 31,
          "material": 7,
          "mode": 4
        }
      ]
    },
    {
      "name": "Cube.023_tail_0",
      "primitives": [
        {
          "attributes": {
            "NORMAL": 33,
            "POSITION": 32,
            "TEXCOORD_0": 34
          },
          "indices": 35,
          "material": 8,
          "mode": 4
        }
      ]
    },
    {
      "name": "Cube.023_Outline_0",
      "primitives": [
        {
          "attributes": {
            "NORMAL": 37,
            "POSITION": 36,
            "TEXCOORD_0": 38
          },
          "indices": 39,
          "material": 9,
          "mode": 4
        }
      ]
    }
  ],
  "nodes": [
    {
      "children": [
        1
      ],
      "matrix": [
        1.0,
        0.0,
        0.0,
        0.0,
        0.0,
        2.220446049250313e-16,
        -1.0,
        0.0,
        0.0,
        1.0,
        2.220446049250313e-16,
        0.0,
        0.0,
        0.0,
        0.0,
        1.0
      ],
      "name": "Sketchfab_model"
    },
    {
      "children": [
        2
      ],
      "matrix": [
        1.0,
        0.0,
        0.0,
        0.0,
        0.0,
        0.0,
        1.0,
        0.0,
        0.0,
        -1.0,
        0.0,
        0.0,
        0.0,
        0.0,
        0.0,
        1.0
      ],
      "name": "bc00928254604b5491a28ba509c2a08f.fbx"
    },
    {
      "children": [
        3,
        14,
        17
      ],
      "name": "RootNode"
    },
    {
      "children": [
        4,
        5,
        6,
        7,
        8,
        9,
        10,
        11,
        12,
        13
      ],
      "matrix": [
        100.0,
        0.0,
        0.0,
        0.0,
        0.0,
        -1.629206793918314e-05,
        -99.99999999999868,
        0.0,
        0.0,
        99.99999999999868,
        -1.629206793918314e-05,
        0.0,
        0.0,
        325.0009460449219,
        -464.2685546875,
        1.0
      ],
      "name": "Cube.023"
    },
    {
      "mesh": 0,
      "name": "Cube.023_MainBody_0"
    },
    {
      "mesh": 1,
      "name": "Cube.023_Cab_0"
    },
    {
      "mesh": 2,
      "name": "Cube.023_Material.001_0"
    },
    {
      "mesh": 3,
      "name": "Cube.023_Black_0"
    },
    {
      "mesh": 4,
      "name": "Cube.023_Ligght_0"
    },
    {
      "mesh": 5,
      "name": "Cube.023_Blinker_0"
    },
    {
      "mesh": 6,
      "name": "Cube.023_Silver_0"
    },
    {
      "mesh": 7,
      "name": "Cube.023_tire_0"
    },
    {
      "mesh": 8,
      "name": "Cube.023_tail_0"
    },
    {
      "mesh": 9,
      "name": "Cube.023_Outline_0"
    },
    {
      "children": [
        15
      ],
      "matrix": [
        100.0,
        0.0,
        0.0,
        0.0,
        0.0,
        -1.629206793918314e-05,
        -99.99999999999868,
        0.0,
        0.0,
        99.99999999999868,
        -1.629206793918314e-05,
        0.0,
        93.80196380615234,
        180.96527099609375,
        98.29903411865234,
        1.0
      ],
      "name": "Spot"
    },
    {
      "children": [
        16
      ],
      "matrix": [
        1.0,
        0.0,
        0.0,
        0.0,
        0.0,
        2.220446049250313e-16,
        1.0,
        0.0,
        0.0,
        -1.0,
        2.220446049250313e-16,
        0.0,
        0.0,
        0.0,
        0.0,
        1.0
      ],
      "name": "Object_15"
    },
    {
      "name": "Object_16"
    },
    {
      "children": [
        18
      ],
      "matrix": [
        100.0,
        0.0,
        0.0,
        0.0,
        -0.0,
        -1.629206793918314e-05,
        -99.99999999999868,
        0.0,
        0.0,
        99.99999999999868,
        -1.629206793918314e-05,
        0.0,
        -93.8736801147461,
        180.96527099609375,
        98.29903411865234,
        1.0
      ],
      "name": "Spot.001"
    },
    {
      "children": [
        19
      ],
      "matrix": [
        1.0,
        0.0,
        0.0,
        0.0,
        0.0,
        2.220446049250313e-16,
        1.0,
        0.0,
        0.0,
        -1.0,
        2.220446049250313e-16,
        0.0,
        0.0,
        0.0,
        0.0,
        1.0
      ],
      "name": "Object_18"
    },
    {
      "name": "Object_19"
    }
  ],
  "scene": 0,
  "scenes": [
    {
      "name": "Sketchfab_Scene",
      "nodes": [
        0
      ]
    }
  ]
}
