{
  "accessors": [
    {
      "bufferView": 2,
      "componentType": 5126,
      "count": 2665,
      "max": [
        9.745816230773926,
        60.96648025512695,
        9.745816230773926
      ],
      "min": [
        -9.745816230773926,
        -0.1006975769996643,
        -9.745816230773926
      ],
      "type": "VEC3"
    },
    {
      "bufferView": 2,
      "byteOffset": 31980,
      "componentType": 5126,
      "count": 2665,
      "max": [
        0.9999933242797852,
        0.9938765168190002,
        0.9999933242797852
      ],
      "min": [
        -0.9999933242797852,
        -1.0,
        -0.9999933242797852
      ],
      "type": "VEC3"
    },
    {
      "bufferView": 1,
      "componentType": 5126,
      "count": 2665,
      "max": [
        0.7939187288284302,
        0.13029392063617706
      ],
      "min": [
        0.07551692426204681,
        0.1281120777130127
      ],
      "type": "VEC2"
    },
    {
      "bufferView": 1,
      "byteOffset": 21320,
      "componentType": 5126,
      "count": 2665,
      "max": [
        0.7939187288284302,
        0.13029392063617706
      ],
      "min": [
        0.07551692426204681,
        0.1281120777130127
      ],
      "type": "VEC2"
    },
    {
      "bufferView": 0,
      "componentType": 5125,
      "count": 12660,
      "type": "SCALAR"
    },
    {
      "bufferView": 2,
      "byteOffset": 63960,
      "componentType": 5126,
      "count": 130,
      "max": [
        9.745816230773926,
        38.32685852050781,
        9.745816230773926
      ],
      "min": [
        -9.745816230773926,
        9.50439167022705,
        -9.745816230773926
      ],
      "type": "VEC3"
    },
    {
      "bufferView": 2,
      "byteOffset": 65520,
      "componentType": 5126,
      "count": 130,
      "max": [
        0.9999933242797852,
        0.04915059357881546,
        0.9999933242797852
      ],
      "min": [
        -0.9999933242797852,
        -0.0036583158653229475,
        -0.9999933242797852
      ],
      "type": "VEC3"
    },
    {
      "bufferView": 1,
      "byteOffset": 42640,
      "componentType": 5126,
      "count": 130,
      "max": [
        0.7706698179244995,
        0.8796613216400146
      ],
      "min": [
        0.1987864375114441,
        0.513200044631958
      ],
      "type": "VEC2"
    },
    {
      "bufferView": 0,
      "byteOffset": 50640,
      "componentType": 5125,
      "count": 384,
      "type": "SCALAR"
    }
  ],
  "asset": {
    "extras": {
      "author": "Ulgen Store (https://sketchfab.com/ulgenstore)",
      "license": "CC-BY-4.0 (http://creativecommons.org/licenses/by/4.0/)",
      "source": "https://sketchfab.com/3d-models/water-bottle-low-poly-free-1467eb1af5ca44f3aacbc26909cc854a",
      "title": "Water Bottle Low Poly [FREE]"
    },
    "generator": "Sketchfab-16.64.0",
    "version": "2.0"
  },
  "bufferViews": [
    {
      "buffer": 0,
      "byteLength": 52176,
      "name": "floatBufferViews",
      "target": 34963
    },
    {
      "buffer": 0,
      "byteLength": 43680,
      "byteOffset": 52176,
      "byteStride": 8,
      "name": "floatBufferViews",
      "target": 34962
    },
    {
      "buffer": 0,
      "byteLength": 67080,
      "byteOffset": 95856,
      "byteStride": 12,
      "name": "floatBufferViews",
      "target": 34962
    }
  ],
  "buffers": [
    {
      "byteLength": 162936,
      "uri": "scene.bin"
    }
  ],
  "extensionsUsed": [
    "KHR_materials_emissive_strength",
    "KHR_materials_specular"
  ],
  "images": [
    {
      "uri": "textures/Imphenzia_baseColor.png"
    },
    {
      "uri": "textures/Imphenzia_metallicRoughness.png"
    },
    {
      "uri": "textures/Imphenzia_specularf0.png"
    },
    {
      "uri": "textures/Etiket_baseColor.jpeg"
    }
  ],
  "materials": [
    {
      "doubleSided": true,
      "extensions": {
        "KHR_materials_emissive_strength": {
          "emissiveStrength": 10.0
        },
        "KHR_materials_specular": {
          "specularColorFactor": [
            1.0,
            1.0,
            1.0
          ],
          "specularFactor": 1.0,
          "specularTexture": {
            "index": 2
          }
        }
      },
      "name": "Imphenzia",
      "pbrMetallicRoughness": {
        "baseColorTexture": {
          "index": 0
        },
        "metallicRoughnessTexture": {
          "index": 1
        },
        "roughnessFactor": 0.7470177871865296
      }
    },
    {
      "doubleSided": true,
      "name": "Etiket",
      "pbrMetallicRoughness": {
        "baseColorTexture": {
          "index": 3
        },
        "metallicFactor": 0.0,
        "roughnessFactor": 0.8211145618000169
      }
    }
  ],
  "meshes": [
    {
      "name": "Water Bottle_Imphenzia_0",
      "primitives": [
        {
          "attributes": {
            "NORMAL": 1,
            "POSITION": 0,
            "TEXCOORD_0": 2,
            "TEXCOORD_1": 3
          },
          "indices": 4,
          "material": 0,
          "mode": 4
        }
      ]
    },
    {
      "name": "Water Bottle_Etiket_0",
      "primitives": [
        {
          "attributes": {
            "NORMAL": 6,
            "POSITION": 5,
            "TEXCOORD_0": 7
          },
          "indices": 8,
          "material": 1,
          "mode": 4
        }
      ]
    }
  ],
  "nodes": [
    {
      "children": [
        1
      ],
      "matrix": [
        1.0,
        0.0,
        0.0,
        0.0,
        0.0,
        2.220446049250313e-16,
        -1.0,
        0.0,
        0.0,
        1.0,
        2.220446049250313e-16,
        0.0,
        0.0,
        0.0,
        0.0,
        1.0
      ],
      "name": "Sketchfab_model"
    },
    {
      "children": [
        2
      ],
      "matrix": [
        0.009999999776482582,
        0.0,
        0.0,
        0.0,
        0.0,
        0.0,
        0.009999999776482582,
        0.0,
        0.0,
        -0.009999999776482582,
        0.0,
        0.0,
        0.0,
        0.0,
        0.0,
        1.0
      ],
      "name": "c192a5a8f120460d871d729d5740146a.fbx"
    },
    {
      "children": [
        3
      ],
      "name": "RootNode"
    },
    {
      "children": [
        4,
        5
      ],
      "name": "Water Bottle"
    },
    {
      "mesh": 0,
      "name": "Water Bottle_Imphenzia_0"
    },
    {
      "mesh": 1,
      "name": "Water Bottle_Etiket_0"
    }
  ],
  "samplers": [
    {
      "magFilter": 9729,
      "minFilter": 9987,
      "wrapS": 10497,
      "wrapT": 10497
    }
  ],
  "scene": 0,
  "scenes": [
    {
      "name": "Sketchfab_Scene",
      "nodes": [
        0
      ]
    }
  ],
  "textures": [
    {
      "sampler": 0,
      "source": 0
    },
    {
      "sampler": 0,
      "source": 1
    },
    {
      "sampler": 0,
      "source": 2
    },
    {
      "sampler": 0,
      "source": 3
    }
  ]
}
