{
  "accessors": [
    {
      "bufferView": 2,
      "componentType": 5126,
      "count": 215,
      "max": [
        25.059234619140625,
        -0.7433149814605713,
        1.0953940153121948
      ],
      "min": [
        7.421754837036133,
        -15.630413055419922,
        -0.7948570251464844
      ],
      "type": "VEC3"
    },
    {
      "bufferView": 2,
      "byteOffset": 2580,
      "componentType": 5126,
      "count": 215,
      "max": [
        0.9895046949386597,
        0.9996245503425598,
        1.0
      ],
      "min": [
        -0.989592432975769,
        -0.999984860420227,
        -1.0
      ],
      "type": "VEC3"
    },
    {
      "bufferView": 1,
      "componentType": 5126,
      "count": 215,
      "max": [
        0.9999169707298279,
        0.6829800009727478
      ],
      "min": [
        8.299999899463728e-05,
        8.299999899463728e-05
      ],
      "type": "VEC2"
    },
    {
      "bufferView": 0,
      "componentType": 5125,
      "count": 684,
      "type": "SCALAR"
    },
    {
      "bufferView": 2,
      "byteOffset": 5160,
      "componentType": 5126,
      "count": 72,
      "max": [
        13.917409896850586,
        -2.2377281188964844,
        1.1464120149612427
      ],
      "min": [
        8.398897171020508,
        -13.612139701843262,
        -0.8702200055122375
      ],
      "type": "VEC3"
    },
    {
      "bufferView": 2,
      "byteOffset": 6024,
      "componentType": 5126,
      "count": 72,
      "max": [
        0.7571489810943604,
        0.7571489810943604,
        0.6532422304153442
      ],
      "min": [
        -0.7571489810943604,
        -0.7571489810943604,
        -0.6532422304153442
      ],
      "type": "VEC3"
    },
    {
      "bufferView": 0,
      "byteOffset": 2736,
      "componentType": 5125,
      "count": 396,
      "type": "SCALAR"
    },
    {
      "bufferView": 2,
      "byteOffset": 6888,
      "componentType": 5126,
      "count": 920,
      "max": [
        14.69410514831543,
        -0.8980799913406372,
        0.276185005903244
      ],
      "min": [
        -36.49897766113281,
        -18.046045303344727,
        7.000000096013537e-06
      ],
      "type": "VEC3"
    },
    {
      "bufferView": 2,
      "byteOffset": 17928,
      "componentType": 5126,
      "count": 920,
      "max": [
        0.9377150535583496,
        1.0,
        1.0
      ],
      "min": [
        -1.0,
        -0.7318877577781677,
        -1.0
      ],
      "type": "VEC3"
    },
    {
      "bufferView": 1,
      "byteOffset": 1720,
      "componentType": 5126,
      "count": 920,
      "max": [
        0.9405410289764404,
        0.8171640038490295
      ],
      "min": [
        0.04590899869799614,
        0.0439860001206398
      ],
      "type": "VEC2"
    },
    {
      "bufferView": 0,
      "byteOffset": 4320,
      "componentType": 5125,
      "count": 1464,
      "type": "SCALAR"
    }
  ],
  "asset": {
    "extras": {
      "author": "1-3D.com (https://sketchfab.com/1-3D.com)",
      "license": "CC-BY-SA-4.0 (http://creativecommons.org/licenses/by-sa/4.0/)",
      "source": "https://sketchfab.com/3d-models/saw-40-9fcdeaba735d4434920d57abb16ab890",
      "title": "Saw 40"
    },
    "generator": "Sketchfab-12.78.0",
    "version": "2.0"
  },
  "bufferViews": [
    {
      "buffer": 0,
      "byteLength": 10176,
      "name": "floatBufferViews",
      "target": 34963
    },
    {
      "buffer": 0,
      "byteLength": 9080,
      "byteOffset": 10176,
      "byteStride": 8,
      "name": "floatBufferViews",
      "target": 34962
    },
    {
      "buffer": 0,
      "byteLength": 28968,
      "byteOffset": 19256,
      "byteStride": 12,
      "name": "floatBufferViews",
      "target": 34962
    }
  ],
  "buffers": [
    {
      "byteLength": 48224,
      "uri": "scene.bin"
    }
  ],
  "images": [
    {
      "uri": "textures/metal_baseColor.jpeg"
    }
  ],
  "materials": [
    {
      "doubleSided": true,
      "name": "handle",
      "pbrMetallicRoughness": {
        "baseColorFactor": [
          0.031744,
          0.031744,
          0.031744,
          1.0
        ],
        "metallicFactor": 0.0,
        "roughnessFactor": 0.9713265967184278
      }
    },
    {
      "doubleSided": true,
      "name": "metal",
      "pbrMetallicRoughness": {
        "baseColorTexture": {
          "index": 0
        },
        "metallicFactor": 0.0,
        "roughnessFactor": 0.7709196280037817
      }
    },
    {
      "doubleSided": true,
      "name": "metalscrews",
      "pbrMetallicRoughness": {
        "baseColorFactor": [
          0.405654,
          0.405654,
          0.405654,
          1.0
        ],
        "metallicFactor": 0.0,
        "roughnessFactor": 0.8005604017385715
      }
    }
  ],
  "meshes": [
    {
      "name": "Object_0",
      "primitives": [
        {
          "attributes": {
            "NORMAL": 1,
            "POSITION": 0,
            "TEXCOORD_0": 2
          },
          "indices": 3,
          "material": 0,
          "mode": 4
        }
      ]
    },
    {
      "name": "Object_1",
      "primitives": [
        {
          "attributes": {
            "NORMAL": 5,
            "POSITION": 4
          },
          "indices": 6,
          "material": 2,
          "mode": 4
        }
      ]
    },
    {
      "name": "Object_2",
      "primitives": [
        {
          "attributes": {
            "NORMAL": 8,
            "POSITION": 7,
            "TEXCOORD_0": 9
          },
          "indices": 10,
          "material": 1,
          "mode": 4
        }
      ]
    }
  ],
  "nodes": [
    {
      "children": [
        1
      ],
      "matrix": [
        1.0,
        0.0,
        0.0,
        0.0,
        0.0,
        2.220446049250313e-16,
        -1.0,
        0.0,
        0.0,
        1.0,
        2.220446049250313e-16,
        0.0,
        0.0,
        0.0,
        0.0,
        1.0
      ],
      "name": "Sketchfab_model"
    },
    {
      "children": [
        2,
        3,
        4
      ],
      "name": "scie-egoine.obj.cleaner.materialmerger.gles"
    },
    {
      "mesh": 0,
      "name": "Object_2"
    },
    {
      "mesh": 1,
      "name": "Object_3"
    },
    {
      "mesh": 2,
      "name": "Object_4"
    }
  ],
  "samplers": [
    {
      "magFilter": 9729,
      "minFilter": 9987,
      "wrapS": 10497,
      "wrapT": 10497
    }
  ],
  "scene": 0,
  "scenes": [
    {
      "name": "Sketchfab_Scene",
      "nodes": [
        0
      ]
    }
  ],
  "textures": [
    {
      "sampler": 0,
      "source": 0
    }
  ]
}
