{
  "accessors": [
    {
      "bufferView": 2,
      "componentType": 5126,
      "count": 2916,
      "max": [
        0.2657409906387329,
        0.26985499262809753,
        0.8745830059051514
      ],
      "min": [
        -0.2657409906387329,
        -0.26985499262809753,
        -1.0
      ],
      "type": "VEC3"
    },
    {
      "bufferView": 2,
      "byteOffset": 34992,
      "componentType": 5126,
      "count": 2916,
      "max": [
        0.9748703837394714,
        0.9999882578849792,
        0.9987025856971741
      ],
      "min": [
        -0.9748703837394714,
        -0.9999993443489075,
        -0.9421735405921936
      ],
      "type": "VEC3"
    },
    {
      "bufferView": 1,
      "componentType": 5126,
      "count": 2916,
      "max": [
        0.9846420288085938,
        0.9792699813842773
      ],
      "min": [
        0.015542900189757347,
        0.03649440035223961
      ],
      "type": "VEC2"
    },
    {
      "bufferView": 0,
      "componentType": 5125,
      "count": 2916,
      "type": "SCALAR"
    },
    {
      "bufferView": 2,
      "byteOffset": 69984,
      "componentType": 5126,
      "count": 336,
      "max": [
        0.16810600459575653,
        0.22965000569820404,
        0.6379929780960083
      ],
      "min": [
        -0.16810600459575653,
        0.1014230027794838,
        0.5099809765815735
      ],
      "type": "VEC3"
    },
    {
      "bufferView": 2,
      "byteOffset": 74016,
      "componentType": 5126,
      "count": 336,
      "max": [
        0.9998048543930054,
        0.9958597421646118,
        0.9945040941238403
      ],
      "min": [
        -0.9998048543930054,
        -0.8841300010681152,
        -0.8685562014579773
      ],
      "type": "VEC3"
    },
    {
      "bufferView": 1,
      "byteOffset": 23328,
      "componentType": 5126,
      "count": 336,
      "max": [
        0.7106829881668091,
        0.8498700261116028
      ],
      "min": [
        0.5564029812812805,
        0.6953989863395691
      ],
      "type": "VEC2"
    },
    {
      "bufferView": 0,
      "byteOffset": 11664,
      "componentType": 5125,
      "count": 336,
      "type": "SCALAR"
    },
    {
      "bufferView": 2,
      "byteOffset": 78048,
      "componentType": 5126,
      "count": 72,
      "max": [
        0.043515998870134354,
        -0.007855529896914959,
        1.0
      ],
      "min": [
        -0.043515998870134354,
        -0.007855529896914959,
        0.5399450063705444
      ],
      "type": "VEC3"
    },
    {
      "bufferView": 2,
      "byteOffset": 78912,
      "componentType": 5126,
      "count": 72,
      "max": [
        2.481120020547678e-07,
        1.0,
        0.0
      ],
      "min": [
        -2.481120020547678e-07,
        1.0,
        -7.07753997630789e-08
      ],
      "type": "VEC3"
    },
    {
      "bufferView": 1,
      "byteOffset": 26016,
      "componentType": 5126,
      "count": 72,
      "max": [
        0.34571200609207153,
        0.08594679832458496
      ],
      "min": [
        0.023588400334119797,
        0.02501720003783703
      ],
      "type": "VEC2"
    },
    {
      "bufferView": 0,
      "byteOffset": 13008,
      "componentType": 5125,
      "count": 72,
      "type": "SCALAR"
    }
  ],
  "asset": {
    "extras": {
      "author": "Theo Kain (https://sketchfab.com/TheoKain)",
      "license": "CC-BY-4.0 (http://creativecommons.org/licenses/by/4.0/)",
      "source": "https://sketchfab.com/3d-models/cartoon-lizard-low-poly-game-e45e5e07a86d4e159acf3007da95d614",
      "title": "Cartoon Lizard - Low Poly Game"
    },
    "generator": "Sketchfab-12.68.0",
    "version": "2.0"
  },
  "bufferViews": [
    {
      "buffer": 0,
      "byteLength": 13296,
      "name": "floatBufferViews",
      "target": 34963
    },
    {
      "buffer": 0,
      "byteLength": 26592,
      "byteOffset": 13296,
      "byteStride": 8,
      "name": "floatBufferViews",
      "target": 34962
    },
    {
      "buffer": 0,
      "byteLength": 79776,
      "byteOffset": 39888,
      "byteStride": 12,
      "name": "floatBufferViews",
      "target": 34962
    }
  ],
  "buffers": [
    {
      "byteLength": 119664,
      "uri": "scene.bin"
    }
  ],
  "images": [
    {
      "uri": "textures/unwrapChekcerShader_baseColor.jpeg"
    }
  ],
  "materials": [
    {
      "doubleSided": true,
      "name": "unwrapChekcerShader",
      "pbrMetallicRoughness": {
        "baseColorTexture": {
          "index": 0
        },
        "metallicFactor": 0.0,
        "roughnessFactor": 0.9577051494623774
      }
    }
  ],
  "meshes": [
    {
      "name": "lizardBody_unwrapChekcerShader_0",
      "primitives": [
        {
          "attributes": {
            "NORMAL": 1,
            "POSITION": 0,
            "TEXCOORD_0": 2
          },
          "indices": 3,
          "material": 0,
          "mode": 4
        }
      ]
    },
    {
      "name": "lizardEye_unwrapChekcerShader_0",
      "primitives": [
        {
          "attributes": {
            "NORMAL": 5,
            "POSITION": 4,
            "TEXCOORD_0": 6
          },
          "indices": 7,
          "material": 0,
          "mode": 4
        }
      ]
    },
    {
      "name": "lizardTongue_unwrapChekcerShader_0",
      "primitives": [
        {
          "attributes": {
            "NORMAL": 9,
            "POSITION": 8,
            "TEXCOORD_0": 10
          },
          "indices": 11,
          "material": 0,
          "mode": 4
        }
      ]
    }
  ],
  "nodes": [
    {
      "children": [
        1
      ],
      "matrix": [
        1.0,
        0.0,
        0.0,
        0.0,
        0.0,
        2.220446049250313e-16,
        -1.0,
        0.0,
        0.0,
        1.0,
        2.220446049250313e-16,
        0.0,
        0.0,
        0.0,
        0.0,
        1.0
      ],
      "name": "Sketchfab_model"
    },
    {
      "children": [
        2
      ],
      "matrix": [
        1.0,
        0.0,
        0.0,
        0.0,
        0.0,
        0.0,
        1.0,
        0.0,
        0.0,
        -1.0,
        0.0,
        0.0,
        0.0,
        0.0,
        0.0,
        1.0
      ],
      "name": "lizard.fbx"
    },
    {
      "children": [
        3
      ],
      "name": "RootNode"
    },
    {
      "children": [
        4,
        6,
        8
      ],
      "matrix": [
        10.0,
        0.0,
        0.0,
        0.0,
        0.0,
        10.0,
        0.0,
        0.0,
        0.0,
        0.0,
        10.0,
        0.0,
        0.0,
        0.0,
        0.0,
        1.0
      ],
      "name": "lizard"
    },
    {
      "children": [
        5
      ],
      "name": "lizardBody"
    },
    {
      "mesh": 0,
      "name": "lizardBody_unwrapChekcerShader_0"
    },
    {
      "children": [
        7
      ],
      "name": "lizardEye"
    },
    {
      "mesh": 1,
      "name": "lizardEye_unwrapChekcerShader_0"
    },
    {
      "children": [
        9
      ],
      "name": "lizardTongue"
    },
    {
      "mesh": 2,
      "name": "lizardTongue_unwrapChekcerShader_0"
    }
  ],
  "samplers": [
    {
      "magFilter": 9729,
      "minFilter": 9987,
      "wrapS": 10497,
      "wrapT": 10497
    }
  ],
  "scene": 0,
  "scenes": [
    {
      "name": "Sketchfab_Scene",
      "nodes": [
        0
      ]
    }
  ],
  "textures": [
    {
      "sampler": 0,
      "source": 0
    }
  ]
}
