{
  "accessors": [
    {
      "bufferView": 2,
      "componentType": 5126,
      "count": 3543,
      "max": [
        1.0989500284194946,
        7.9874701499938965,
        2.4964499473571777
      ],
      "min": [
        -1.462939977645874,
        -0.9406899809837341,
        -0.6604700088500977
      ],
      "type": "VEC3"
    },
    {
      "bufferView": 2,
      "byteOffset": 42516,
      "componentType": 5126,
      "count": 3543,
      "max": [
        1.0,
        0.9999986290931702,
        1.0
      ],
      "min": [
        -1.0,
        -1.0,
        -1.0
      ],
      "type": "VEC3"
    },
    {
      "bufferView": 3,
      "componentType": 5126,
      "count": 3543,
      "max": [
        1.0,
        0.9999992847442627,
        0.9999985098838806,
        1.0
      ],
      "min": [
        -0.9999958872795105,
        -0.9999952912330627,
        -0.9999233484268188,
        -1.0
      ],
      "type": "VEC4"
    },
    {
      "bufferView": 1,
      "componentType": 5126,
      "count": 3543,
      "max": [
        0.9996399879455566,
        1.0002000331878662
      ],
      "min": [
        0.0013699999544769526,
        -0.0002500000118743628
      ],
      "type": "VEC2"
    },
    {
      "bufferView": 1,
      "byteOffset": 28344,
      "componentType": 5126,
      "count": 3543,
      "max": [
        0.9996399879455566,
        1.0002000331878662
      ],
      "min": [
        0.0013699999544769526,
        -0.0002500000118743628
      ],
      "type": "VEC2"
    },
    {
      "bufferView": 0,
      "componentType": 5125,
      "count": 11502,
      "type": "SCALAR"
    },
    {
      "bufferView": 2,
      "byteOffset": 85032,
      "componentType": 5126,
      "count": 108,
      "max": [
        0.4419099986553192,
        3.592740058898926,
        1.3806999921798706
      ],
      "min": [
        -0.3968600034713745,
        3.4393301010131836,
        0.6601999998092651
      ],
      "type": "VEC3"
    },
    {
      "bufferView": 2,
      "byteOffset": 86328,
      "componentType": 5126,
      "count": 108,
      "max": [
        0.7844477891921997,
        0.9999999403953552,
        0.8025839924812317
      ],
      "min": [
        -0.8001719117164612,
        0.15653443336486816,
        -0.987608015537262
      ],
      "type": "VEC3"
    },
    {
      "bufferView": 3,
      "byteOffset": 56688,
      "componentType": 5126,
      "count": 108,
      "max": [
        0.9999207258224487,
        0.8012242317199707,
        0.33769655227661133,
        1.0
      ],
      "min": [
        0.5978607535362244,
        -0.7828190922737122,
        -0.32862141728401184,
        1.0
      ],
      "type": "VEC4"
    },
    {
      "bufferView": 1,
      "byteOffset": 56688,
      "componentType": 5126,
      "count": 108,
      "max": [
        0.21967999637126923,
        0.4076800048351288
      ],
      "min": [
        0.10148999840021133,
        0.29840999841690063
      ],
      "type": "VEC2"
    },
    {
      "bufferView": 1,
      "byteOffset": 57552,
      "componentType": 5126,
      "count": 108,
      "max": [
        0.21967999637126923,
        0.4076800048351288
      ],
      "min": [
        0.10148999840021133,
        0.29840999841690063
      ],
      "type": "VEC2"
    },
    {
      "bufferView": 0,
      "byteOffset": 46008,
      "componentType": 5125,
      "count": 318,
      "type": "SCALAR"
    },
    {
      "bufferView": 2,
      "byteOffset": 87624,
      "componentType": 5126,
      "count": 62,
      "max": [
        0.7839699983596802,
        7.9874701499938965,
        0.6811500191688538
      ],
      "min": [
        0.6535699963569641,
        2.2001500129699707,
        -0.28968000411987305
      ],
      "type": "VEC3"
    },
    {
      "bufferView": 2,
      "byteOffset": 88368,
      "componentType": 5126,
      "count": 62,
      "max": [
        1.0,
        0.0,
        0.0
      ],
      "min": [
        -1.0,
        0.0,
        0.0
      ],
      "type": "VEC3"
    },
    {
      "bufferView": 3,
      "byteOffset": 58416,
      "componentType": 5126,
      "count": 62,
      "max": [
        0.0,
        -0.995410144329071,
        -0.034981295466423035,
        1.0
      ],
      "min": [
        0.0,
        -0.9993879795074463,
        -0.09570181369781494,
        1.0
      ],
      "type": "VEC4"
    },
    {
      "bufferView": 1,
      "byteOffset": 58416,
      "componentType": 5126,
      "count": 62,
      "max": [
        1.0008000135421753,
        0.6455399990081787
      ],
      "min": [
        0.45528000593185425,
        0.49619001150131226
      ],
      "type": "VEC2"
    },
    {
      "bufferView": 1,
      "byteOffset": 58912,
      "componentType": 5126,
      "count": 62,
      "max": [
        1.0008000135421753,
        0.6455399990081787
      ],
      "min": [
        0.45528000593185425,
        0.49619001150131226
      ],
      "type": "VEC2"
    },
    {
      "bufferView": 0,
      "byteOffset": 47280,
      "componentType": 5125,
      "count": 168,
      "type": "SCALAR"
    },
    {
      "bufferView": 2,
      "byteOffset": 89112,
      "componentType": 5126,
      "count": 741,
      "max": [
        1.1205799579620361,
        3.597990036010742,
        2.4964499473571777
      ],
      "min": [
        -1.382889986038208,
        -0.44449999928474426,
        -0.580489993095398
      ],
      "type": "VEC3"
    },
    {
      "bufferView": 2,
      "byteOffset": 98004,
      "componentType": 5126,
      "count": 741,
      "max": [
        1.0,
        0.9939258098602295,
        0.999622642993927
      ],
      "min": [
        -0.9999812245368958,
        -0.9999324083328247,
        -0.9980448484420776
      ],
      "type": "VEC3"
    },
    {
      "bufferView": 3,
      "byteOffset": 59408,
      "componentType": 5126,
      "count": 741,
      "max": [
        0.999998152256012,
        0.9998007416725159,
        0.9998940825462341,
        1.0
      ],
      "min": [
        -1.0,
        -0.997405469417572,
        -0.9997429847717285,
        1.0
      ],
      "type": "VEC4"
    },
    {
      "bufferView": 1,
      "byteOffset": 59408,
      "componentType": 5126,
      "count": 741,
      "max": [
        0.9666100144386292,
        0.9978799819946289
      ],
      "min": [
        0.0003600000054575503,
        0.026979999616742134
      ],
      "type": "VEC2"
    },
    {
      "bufferView": 1,
      "byteOffset": 65336,
      "componentType": 5126,
      "count": 741,
      "max": [
        0.9666100144386292,
        0.9978799819946289
      ],
      "min": [
        0.0003600000054575503,
        0.026979999616742134
      ],
      "type": "VEC2"
    },
    {
      "bufferView": 0,
      "byteOffset": 47952,
      "componentType": 5125,
      "count": 2616,
      "type": "SCALAR"
    },
    {
      "bufferView": 2,
      "byteOffset": 106896,
      "componentType": 5126,
      "count": 10488,
      "max": [
        0.03585999831557274,
        5.505879878997803,
        0.7591400146484375
      ],
      "min": [
        -0.036559998989105225,
        -0.402209997177124,
        -0.4137499928474426
      ],
      "type": "VEC3"
    },
    {
      "bufferView": 2,
      "byteOffset": 232752,
      "componentType": 5126,
      "count": 10488,
      "max": [
        1.0,
        0.9959635734558105,
        0.9972227215766907
      ],
      "min": [
        -1.0,
        -0.9963449835777283,
        -0.9978067874908447
      ],
      "type": "VEC3"
    },
    {
      "bufferView": 3,
      "byteOffset": 71264,
      "componentType": 5126,
      "count": 10488,
      "max": [
        0.9996206164360046,
        0.9999986290931702,
        1.0,
        1.0
      ],
      "min": [
        -0.9954845905303955,
        -0.9999452233314514,
        -0.9999998807907104,
        -1.0
      ],
      "type": "VEC4"
    },
    {
      "bufferView": 1,
      "byteOffset": 71264,
      "componentType": 5126,
      "count": 10488,
      "max": [
        0.9994699954986572,
        0.8952699899673462
      ],
      "min": [
        0.0008900000248104334,
        0.035659998655319214
      ],
      "type": "VEC2"
    },
    {
      "bufferView": 1,
      "byteOffset": 155168,
      "componentType": 5126,
      "count": 10488,
      "max": [
        0.9994699954986572,
        0.8952699899673462
      ],
      "min": [
        0.0008900000248104334,
        0.035659998655319214
      ],
      "type": "VEC2"
    },
    {
      "bufferView": 2,
      "byteOffset": 358608,
      "componentType": 5126,
      "count": 10488,
      "max": [
        0.0,
        0.04958999156951904,
        0.05733000114560127
      ],
      "min": [
        0.0,
        -0.04909999668598175,
        -0.05531999468803406
      ],
      "type": "VEC3"
    },
    {
      "bufferView": 2,
      "byteOffset": 484464,
      "componentType": 5126,
      "count": 10488,
      "max": [
        0.0,
        0.09845998883247375,
        0.11490000039339066
      ],
      "min": [
        0.0,
        -0.09825000166893005,
        -0.11094999313354492
      ],
      "type": "VEC3"
    },
    {
      "bufferView": 2,
      "byteOffset": 610320,
      "componentType": 5126,
      "count": 10488,
      "max": [
        0.0,
        0.1480402946472168,
        0.17239999771118164
      ],
      "min": [
        0.0,
        -0.14688999950885773,
        -0.16653001308441162
      ],
      "type": "VEC3"
    },
    {
      "bufferView": 2,
      "byteOffset": 736176,
      "componentType": 5126,
      "count": 10488,
      "max": [
        0.0,
        0.19765996932983398,
        0.23116999864578247
      ],
      "min": [
        0.0,
        -0.19635000824928284,
        -0.22141000628471375
      ],
      "type": "VEC3"
    },
    {
      "bufferView": 2,
      "byteOffset": 862032,
      "componentType": 5126,
      "count": 10488,
      "max": [
        0.0,
        0.24375009536743164,
        0.28847000002861023
      ],
      "min": [
        0.0,
        -0.2465600073337555,
        -0.27744999527931213
      ],
      "type": "VEC3"
    },
    {
      "bufferView": 2,
      "byteOffset": 987888,
      "componentType": 5126,
      "count": 10488,
      "max": [
        0.0,
        0.28773021697998047,
        0.3439500033855438
      ],
      "min": [
        0.0,
        -0.2953999936580658,
        -0.3337700068950653
      ],
      "type": "VEC3"
    },
    {
      "bufferView": 2,
      "byteOffset": 1113744,
      "componentType": 5126,
      "count": 10488,
      "max": [
        0.0,
        0.3312000036239624,
        0.40345001220703125
      ],
      "min": [
        0.0,
        -0.34251999855041504,
        -0.38938000798225403
      ],
      "type": "VEC3"
    },
    {
      "bufferView": 0,
      "byteOffset": 58416,
      "componentType": 5125,
      "count": 25086,
      "type": "SCALAR"
    },
    {
      "bufferView": 4,
      "componentType": 5126,
      "count": 8,
      "max": [
        0.2916699945926666
      ],
      "min": [
        0.0
      ],
      "type": "SCALAR"
    },
    {
      "bufferView": 4,
      "byteOffset": 32,
      "componentType": 5126,
      "count": 56,
      "max": [
        1.0
      ],
      "min": [
        0.0
      ],
      "type": "SCALAR"
    }
  ],
  "animations": [
    {
      "channels": [
        {
          "sampler": 0,
          "target": {
            "node": 10,
            "path": "weights"
          }
        }
      ],
      "name": "Key.001Action",
      "samplers": [
        {
          "input": 37,
          "interpolation": "LINEAR",
          "output": 38
        }
      ]
    }
  ],
  "asset": {
    "extras": {
      "author": "3DHaupt (https://sketchfab.com/dennish2010)",
      "license": "CC-BY-NC-4.0 (http://creativecommons.org/licenses/by-nc/4.0/)",
      "source": "https://sketchfab.com/3d-models/animated-chainsaw-low-poly-free-download-1587c6a9f506407ca0512fe3122959f8",
      "title": "Animated Chainsaw Low-Poly (Free-Download)"
    },
    "generator": "Sketchfab-12.65.0",
    "version": "2.0"
  },
  "bufferViews": [
    {
      "buffer": 0,
      "byteLength": 158760,
      "name": "floatBufferViews",
      "target": 34963
    },
    {
      "buffer": 0,
      "byteLength": 239072,
      "byteOffset": 158760,
      "byteStride": 8,
      "name": "floatBufferViews",
      "target": 34962
    },
    {
      "buffer": 0,
      "byteLength": 1239600,
      "byteOffset": 397832,
      "byteStride": 12,
      "name": "floatBufferViews",
      "target": 34962
    },
    {
      "buffer": 0,
      "byteLength": 239072,
      "byteOffset": 1637432,
      "byteStride": 16,
      "name": "floatBufferViews",
      "target": 34962
    },
    {
      "buffer": 0,
      "byteLength": 256,
      "byteOffset": 1876504,
      "name": "floatBufferViews"
    }
  ],
  "buffers": [
    {
      "byteLength": 1876760,
      "uri": "scene.bin"
    }
  ],
  "images": [
    {
      "uri": "textures/chainsaw.001_baseColor.jpeg"
    },
    {
      "uri": "textures/chainsaw.001_normal.jpeg"
    },
    {
      "uri": "textures/chainsaw.002_normal.png"
    },
    {
      "uri": "textures/chainsaw_normal.jpeg"
    }
  ],
  "materials": [
    {
      "doubleSided": true,
      "name": "chainsaw.001",
      "normalTexture": {
        "index": 1
      },
      "pbrMetallicRoughness": {
        "baseColorTexture": {
          "index": 0
        },
        "roughnessFactor": 0.7816562293
      }
    },
    {
      "doubleSided": true,
      "name": "chainsaw.002",
      "normalTexture": {
        "index": 2
      },
      "pbrMetallicRoughness": {
        "baseColorTexture": {
          "index": 0
        },
        "metallicFactor": 0.0,
        "roughnessFactor": 0.6
      }
    },
    {
      "doubleSided": true,
      "name": "chainsaw.003",
      "normalTexture": {
        "index": 1
      },
      "pbrMetallicRoughness": {
        "baseColorTexture": {
          "index": 0
        },
        "roughnessFactor": 0.6
      }
    },
    {
      "doubleSided": true,
      "name": "chainsaw",
      "normalTexture": {
        "index": 3
      },
      "pbrMetallicRoughness": {
        "baseColorTexture": {
          "index": 0
        },
        "metallicFactor": 0.0,
        "roughnessFactor": 0.6
      }
    }
  ],
  "meshes": [
    {
      "name": "chainsaw_0",
      "primitives": [
        {
          "attributes": {
            "NORMAL": 1,
            "POSITION": 0,
            "TANGENT": 2,
            "TEXCOORD_0": 3,
            "TEXCOORD_1": 4
          },
          "indices": 5,
          "material": 0,
          "mode": 4
        }
      ]
    },
    {
      "name": "chainsaw_1",
      "primitives": [
        {
          "attributes": {
            "NORMAL": 7,
            "POSITION": 6,
            "TANGENT": 8,
            "TEXCOORD_0": 9,
            "TEXCOORD_1": 10
          },
          "indices": 11,
          "material": 1,
          "mode": 4
        }
      ]
    },
    {
      "name": "chainsaw_2",
      "primitives": [
        {
          "attributes": {
            "NORMAL": 13,
            "POSITION": 12,
            "TANGENT": 14,
            "TEXCOORD_0": 15,
            "TEXCOORD_1": 16
          },
          "indices": 17,
          "material": 2,
          "mode": 4
        }
      ]
    },
    {
      "name": "chainsaw_3",
      "primitives": [
        {
          "attributes": {
            "NORMAL": 19,
            "POSITION": 18,
            "TANGENT": 20,
            "TEXCOORD_0": 21,
            "TEXCOORD_1": 22
          },
          "indices": 23,
          "material": 3,
          "mode": 4
        }
      ]
    },
    {
      "name": "Cube.002_0",
      "primitives": [
        {
          "attributes": {
            "NORMAL": 25,
            "POSITION": 24,
            "TANGENT": 26,
            "TEXCOORD_0": 27,
            "TEXCOORD_1": 28
          },
          "indices": 36,
          "material": 0,
          "mode": 4,
          "targets": [
            {
              "POSITION": 29
            },
            {
              "POSITION": 30
            },
            {
              "POSITION": 31
            },
            {
              "POSITION": 32
            },
            {
              "POSITION": 33
            },
            {
              "POSITION": 34
            },
            {
              "POSITION": 35
            }
          ]
        }
      ],
      "weights": [
        0.0,
        0.0,
        0.0,
        0.0,
        0.0,
        0.0,
        0.0
      ]
    }
  ],
  "nodes": [
    {
      "children": [
        1
      ],
      "matrix": [
        1.0,
        0.0,
        0.0,
        0.0,
        0.0,
        2.220446049250313e-16,
        -1.0,
        0.0,
        0.0,
        1.0,
        2.220446049250313e-16,
        0.0,
        0.0,
        0.0,
        0.0,
        1.0
      ],
      "name": "Sketchfab_model"
    },
    {
      "children": [
        2,
        4,
        11,
        13
      ],
      "name": "Root"
    },
    {
      "children": [
        3
      ],
      "matrix": [
        0.7278200000000001,
        -0.027930000000000007,
        0.6852000000000001,
        0.0,
        0.3348000000000001,
        0.8864700000000001,
        -0.31949000000000005,
        0.0,
        -0.59848,
        0.46194,
        0.6545500000000001,
        0.0,
        -2.27594,
        6.63586,
        8.847719999999999,
        1.0
      ],
      "name": "Sun"
    },
    {
      "name": "Sun"
    },
    {
      "children": [
        5,
        6,
        7,
        8,
        9
      ],
      "name": "chainsaw"
    },
    {
      "mesh": 0,
      "name": "chainsaw_0"
    },
    {
      "mesh": 1,
      "name": "chainsaw_1"
    },
    {
      "mesh": 2,
      "name": "chainsaw_2"
    },
    {
      "mesh": 3,
      "name": "chainsaw_3"
    },
    {
      "children": [
        10
      ],
      "matrix": [
        1.0,
        0.0,
        0.0,
        0.0,
        -0.0,
        1.0,
        0.0,
        0.0,
        0.0,
        0.0,
        1.0,
        0.0,
        0.7192900000000001,
        2.55477,
        0.019090000000000003,
        1.0
      ],
      "name": "Cube.002"
    },
    {
      "mesh": 4,
      "name": "Cube.002_0"
    },
    {
      "children": [
        12
      ],
      "matrix": [
        1.0,
        0.0,
        0.0,
        0.0,
        0.0,
        1.0,
        0.0,
        0.0,
        0.0,
        0.0,
        1.0,
        0.0,
        7.541720000000001,
        5.279990000000001,
        2.8385399999999996,
        1.0
      ],
      "name": "Point"
    },
    {
      "name": "Point"
    },
    {
      "children": [
        14
      ],
      "matrix": [
        1.0,
        0.0,
        0.0,
        0.0,
        0.0,
        1.0,
        0.0,
        0.0,
        0.0,
        0.0,
        1.0,
        0.0,
        -3.2571300000000005,
        -5.249290000000001,
        4.01306,
        1.0
      ],
      "name": "Point.001"
    },
    {
      "name": "Point.001"
    }
  ],
  "samplers": [
    {
      "magFilter": 9729,
      "minFilter": 9987,
      "wrapS": 10497,
      "wrapT": 10497
    }
  ],
  "scene": 0,
  "scenes": [
    {
      "name": "Sketchfab_Scene",
      "nodes": [
        0
      ]
    }
  ],
  "textures": [
    {
      "sampler": 0,
      "source": 0
    },
    {
      "sampler": 0,
      "source": 1
    },
    {
      "sampler": 0,
      "source": 2
    },
    {
      "sampler": 0,
      "source": 3
    }
  ]
}
